<svg class="animated" id="freepik_stories-blood-test" xmlns="http://www.w3.org/2000/svg" xmlns:xlink="http://www.w3.org/1999/xlink" viewBox="0 0 500 500" version="1.1" xmlns:svgjs="http://svgjs.com/svgjs"><style>svg#freepik_stories-blood-test:not(.animated) .animable {opacity: 0;}svg#freepik_stories-blood-test.animated #freepik--background-simple--inject-82 {animation: 1.5s Infinite  linear floating;animation-delay: 0s;}svg#freepik_stories-blood-test.animated #freepik--Graphics--inject-82 {animation: 1.5s Infinite  linear floating;animation-delay: 0s;}svg#freepik_stories-blood-test.animated #freepik--Plants--inject-82 {animation: 1.5s Infinite  linear floating;animation-delay: 0s;}svg#freepik_stories-blood-test.animated #freepik--Character--inject-82 {animation: 1.5s Infinite  linear floating;animation-delay: 0s;}svg#freepik_stories-blood-test.animated #freepik--Device--inject-82 {animation: 1.5s Infinite  linear floating;animation-delay: 0s;}            @keyframes floating {                0% {                    opacity: 1;                    transform: translateY(0px);                }                50% {                    transform: translateY(-10px);                }                100% {                    opacity: 1;                    transform: translateY(0px);                }            }        </style><g id="freepik--background-simple--inject-82" class="animable" style="transform-origin: 244.374px 252.427px;"><path d="M208.87,459.69s77.87,14.07,142.35-39.53S437.28,277.8,456.66,206.34,446.13,70.4,385.8,48.74,296.21,78.57,219.63,93.52s-99.25,7.31-155.36,61.62S15,314.66,78.9,382.75,208.87,459.69,208.87,459.69Z" style="fill: rgb(119, 255, 192); transform-origin: 244.374px 252.427px;" id="elnkon9eg1tuk" class="animable"></path><g id="el8noyk22pfu"><path d="M208.87,459.69s77.87,14.07,142.35-39.53S437.28,277.8,456.66,206.34,446.13,70.4,385.8,48.74,296.21,78.57,219.63,93.52s-99.25,7.31-155.36,61.62S15,314.66,78.9,382.75,208.87,459.69,208.87,459.69Z" style="fill: rgb(255, 255, 255); opacity: 0.7; transform-origin: 244.374px 252.427px;" class="animable"></path></g></g><g id="freepik--Graphics--inject-82" class="animable animator-active" style="transform-origin: 253.921px 166.288px;"><path d="M163.22,184.33c.24.7.83,1.8,1.44,1.8.94,0,1.7-1.36,1.7-3s-.76-3-1.7-3c-.55,0-1.11,1-1.36,1.56l-6.3-.19A28.85,28.85,0,0,0,154,170l8.3-5.12c.61.53,1.77,1.26,2.35.92.9-.51.88-2.23-.05-3.82s-2.39-2.47-3.28-2c-.53.31-.53,1.54-.44,2.23l-8.64,4.66a29.13,29.13,0,0,0-8.39-8.31l2.94-5.47c.72.14,2,.19,2.28-.34.46-.81-.33-2.15-1.78-3s-3-.86-3.48,0c-.28.48.28,1.45.66,2l-3.29,5.35a29,29,0,0,0-11.4-3.09l-.28-9.75c.77-.26,2-.91,2-1.58,0-1-1.5-1.87-3.34-1.87s-3.34.84-3.34,1.87c0,.61,1.06,1.22,1.71,1.5l-.29,9.83a29,29,0,0,0-11.39,3.09l-3.26-5.29c.49-.55,1.15-1.61.84-2.14-.47-.81-2-.79-3.48,0s-2.25,2.17-1.78,3c.28.48,1.4.48,2,.4l3,5.53a29.26,29.26,0,0,0-8.39,8.31l-8.57-4.62c.16-.79.21-2.16-.38-2.5-.89-.52-2.36.36-3.28,2s-1,3.31-.05,3.82c.53.31,1.59-.31,2.15-.73L102,170a28.68,28.68,0,0,0-3,11.41l-6.23.19c-.23-.7-.82-1.8-1.43-1.8-.94,0-1.7,1.36-1.7,3s.76,3,1.7,3c.55,0,1.11-1,1.36-1.56l6.3.19a28.68,28.68,0,0,0,3,11.41l-8.3,5.12c-.61-.53-1.77-1.26-2.36-.92-.89.51-.87,2.23.05,3.82s2.4,2.47,3.29,2c.53-.31.53-1.54.44-2.23l8.64-4.66a29.26,29.26,0,0,0,8.39,8.31l-2.94,5.47c-.73-.14-2-.19-2.28.34-.47.81.33,2.15,1.78,3s3,.86,3.48.05c.28-.48-.28-1.45-.67-2l3.3-5.35a29,29,0,0,0,11.4,3.09l.28,9.75c-.77.27-2,.91-2,1.58,0,1,1.5,1.87,3.34,1.87s3.34-.84,3.34-1.87c0-.61-1.07-1.22-1.71-1.5l.28-9.83a29,29,0,0,0,11.4-3.09l3.26,5.29c-.49.55-1.15,1.61-.84,2.14.47.81,2,.79,3.48-.05s2.24-2.17,1.78-3c-.28-.48-1.4-.48-2-.4l-3-5.53a29.26,29.26,0,0,0,8.39-8.31l8.56,4.62c-.15.79-.2,2.16.38,2.5.9.51,2.37-.36,3.29-2s.95-3.31.05-3.82c-.53-.31-1.59.31-2.15.73L154,195.93a28.68,28.68,0,0,0,3-11.41Z" style="fill: none; stroke: rgb(120, 120, 120); stroke-linecap: round; stroke-linejoin: round; transform-origin: 128px 182.945px;" id="elxeeuw72w2j" class="animable"></path><path d="M130.27,160.78a3,3,0,1,1-3-2.85A2.93,2.93,0,0,1,130.27,160.78Z" style="fill: none; stroke: rgb(120, 120, 120); stroke-linecap: round; stroke-linejoin: round; transform-origin: 127.274px 160.93px;" id="els8vy8dnc1e" class="animable"></path><path d="M112.19,183.83a3,3,0,1,1-3-2.85A2.93,2.93,0,0,1,112.19,183.83Z" style="fill: none; stroke: rgb(120, 120, 120); stroke-linecap: round; stroke-linejoin: round; transform-origin: 109.194px 183.98px;" id="eljyd7zmlk3n" class="animable"></path><path d="M125.58,176.42a3,3,0,1,1-3-2.85A2.93,2.93,0,0,1,125.58,176.42Z" style="fill: none; stroke: rgb(120, 120, 120); stroke-linecap: round; stroke-linejoin: round; transform-origin: 122.584px 176.57px;" id="el2owfwryv071" class="animable"></path><path d="M118.6,201.22a3,3,0,1,1-3-2.85A2.93,2.93,0,0,1,118.6,201.22Z" style="fill: none; stroke: rgb(120, 120, 120); stroke-linecap: round; stroke-linejoin: round; transform-origin: 115.604px 201.37px;" id="ellf7q40dx32a" class="animable"></path><path d="M151.23,189.25a3,3,0,1,1-3-2.85A2.93,2.93,0,0,1,151.23,189.25Z" style="fill: none; stroke: rgb(120, 120, 120); stroke-linecap: round; stroke-linejoin: round; transform-origin: 148.234px 189.4px;" id="eletvpd57zo0c" class="animable"></path><path d="M129.82,193.14a3,3,0,1,1-3-2.85A2.93,2.93,0,0,1,129.82,193.14Z" style="fill: none; stroke: rgb(120, 120, 120); stroke-linecap: round; stroke-linejoin: round; transform-origin: 126.824px 193.29px;" id="elo6d1axxvii" class="animable"></path><path d="M139.51,181.74a3,3,0,1,1-3-2.85A2.93,2.93,0,0,1,139.51,181.74Z" style="fill: none; stroke: rgb(120, 120, 120); stroke-linecap: round; stroke-linejoin: round; transform-origin: 136.514px 181.89px;" id="ellpfmihpks7c" class="animable"></path><path d="M146.74,168.46a3,3,0,1,1-3-2.85A2.93,2.93,0,0,1,146.74,168.46Z" style="fill: none; stroke: rgb(120, 120, 120); stroke-linecap: round; stroke-linejoin: round; transform-origin: 143.744px 168.61px;" id="elfn632ny0a7m" class="animable"></path><path d="M139.83,202.64a3,3,0,1,1-3-2.85A2.92,2.92,0,0,1,139.83,202.64Z" style="fill: none; stroke: rgb(120, 120, 120); stroke-linecap: round; stroke-linejoin: round; transform-origin: 136.834px 202.789px;" id="el0avnamw7dsm" class="animable"></path><path d="M115.32,165.87a3,3,0,1,1-3-2.85A2.92,2.92,0,0,1,115.32,165.87Z" style="fill: none; stroke: rgb(120, 120, 120); stroke-linecap: round; stroke-linejoin: round; transform-origin: 112.324px 166.019px;" id="elznc7em3nwzc" class="animable"></path><path d="M194.35,276.6c.11.32.38.83.66.83.43,0,.79-.63.79-1.4s-.36-1.4-.79-1.4c-.25,0-.51.45-.63.72l-2.9-.09A13.31,13.31,0,0,0,190.1,270l3.82-2.36c.28.24.82.58,1.09.42s.4-1,0-1.76-1.11-1.14-1.52-.9c-.24.14-.24.7-.2,1l-4,2.15a13.32,13.32,0,0,0-3.87-3.83l1.36-2.52c.33.06.91.08,1-.16s-.15-1-.82-1.38-1.39-.4-1.6,0c-.13.22.12.67.3.9L184.18,264a13.44,13.44,0,0,0-5.25-1.43l-.14-4.49c.36-.13.92-.42.92-.73,0-.48-.69-.86-1.54-.86s-1.54.38-1.54.86c0,.28.49.56.79.69l-.14,4.53A13.44,13.44,0,0,0,172,264l-1.5-2.44c.22-.26.52-.74.38-1s-.93-.36-1.6,0-1,1-.82,1.38.64.22.93.19l1.38,2.55a13.32,13.32,0,0,0-3.87,3.83l-4-2.13c.07-.36.09-1-.18-1.15s-1.09.16-1.51.9-.44,1.53,0,1.76c.25.15.74-.14,1-.33l3.86,2.38a13.31,13.31,0,0,0-1.38,5.26l-2.87.09c-.11-.33-.38-.83-.66-.83s-.79.62-.79,1.4.36,1.4.79,1.4c.25,0,.51-.45.63-.72l2.9.08a13.32,13.32,0,0,0,1.38,5.27l-3.82,2.36c-.28-.25-.82-.58-1.09-.43s-.4,1,0,1.77,1.11,1.14,1.52.9c.24-.14.24-.71.2-1l4-2.15a13.36,13.36,0,0,0,3.87,3.84l-1.36,2.52c-.33-.07-.91-.09-1.05.16s.15,1,.82,1.38,1.39.39,1.61,0-.13-.67-.31-.91l1.52-2.46a13.26,13.26,0,0,0,5.25,1.42l.14,4.5c-.36.12-.92.42-.92.73,0,.47.69.86,1.54.86s1.54-.39,1.54-.86c0-.28-.49-.57-.79-.69l.14-4.54a13.26,13.26,0,0,0,5.25-1.42l1.5,2.43c-.22.26-.52.75-.38,1s.93.37,1.6,0,1-1,.82-1.38c-.13-.22-.64-.22-.93-.18l-1.38-2.55a13.36,13.36,0,0,0,3.87-3.84l3.95,2.13c-.07.37-.09,1,.18,1.16s1.09-.17,1.52-.91.43-1.52,0-1.76c-.25-.14-.74.14-1,.34L190.1,282a13.32,13.32,0,0,0,1.38-5.27Z" style="fill: none; stroke: rgb(120, 120, 120); stroke-linecap: round; stroke-linejoin: round; transform-origin: 178.085px 275.935px;" id="el0esw19xeu0s" class="animable"></path><ellipse cx="177.77" cy="265.74" rx="1.38" ry="1.31" style="fill: none; stroke: rgb(120, 120, 120); stroke-linecap: round; stroke-linejoin: round; transform-origin: 177.77px 265.74px;" id="elgjxn02to0ls" class="animable"></ellipse><path d="M170.81,276.37a1.38,1.38,0,1,1-1.38-1.32A1.35,1.35,0,0,1,170.81,276.37Z" style="fill: none; stroke: rgb(120, 120, 120); stroke-linecap: round; stroke-linejoin: round; transform-origin: 169.431px 276.43px;" id="el1d1hzg93s42" class="animable"></path><ellipse cx="175.61" cy="272.95" rx="1.38" ry="1.31" style="fill: none; stroke: rgb(120, 120, 120); stroke-linecap: round; stroke-linejoin: round; transform-origin: 175.61px 272.95px;" id="el9ly4bq30khs" class="animable"></ellipse><path d="M173.77,284.39a1.38,1.38,0,1,1-1.38-1.32A1.35,1.35,0,0,1,173.77,284.39Z" style="fill: none; stroke: rgb(120, 120, 120); stroke-linecap: round; stroke-linejoin: round; transform-origin: 172.391px 284.45px;" id="elxcynluf7o4" class="animable"></path><path d="M188.82,278.87a1.38,1.38,0,1,1-1.38-1.32A1.35,1.35,0,0,1,188.82,278.87Z" style="fill: none; stroke: rgb(120, 120, 120); stroke-linecap: round; stroke-linejoin: round; transform-origin: 187.441px 278.93px;" id="el185s2s0ialf" class="animable"></path><path d="M178.94,280.66a1.38,1.38,0,1,1-1.38-1.31A1.35,1.35,0,0,1,178.94,280.66Z" style="fill: none; stroke: rgb(120, 120, 120); stroke-linecap: round; stroke-linejoin: round; transform-origin: 177.562px 280.73px;" id="elwytr8arp0rc" class="animable"></path><path d="M183.41,275.4a1.38,1.38,0,1,1-1.38-1.31A1.35,1.35,0,0,1,183.41,275.4Z" style="fill: none; stroke: rgb(120, 120, 120); stroke-linecap: round; stroke-linejoin: round; transform-origin: 182.032px 275.47px;" id="el1npsvdschmsi" class="animable"></path><path d="M186.75,269.28a1.38,1.38,0,1,1-1.38-1.32A1.35,1.35,0,0,1,186.75,269.28Z" style="fill: none; stroke: rgb(120, 120, 120); stroke-linecap: round; stroke-linejoin: round; transform-origin: 185.371px 269.34px;" id="elq2y7k5djxg8" class="animable"></path><path d="M183.56,285a1.38,1.38,0,1,1-1.38-1.31A1.35,1.35,0,0,1,183.56,285Z" style="fill: none; stroke: rgb(120, 120, 120); stroke-linecap: round; stroke-linejoin: round; transform-origin: 182.182px 285.07px;" id="elw33dwg9qvn9" class="animable"></path><path d="M172.26,268.08a1.39,1.39,0,1,1-1.39-1.31A1.35,1.35,0,0,1,172.26,268.08Z" style="fill: none; stroke: rgb(120, 120, 120); stroke-linecap: round; stroke-linejoin: round; transform-origin: 170.872px 268.16px;" id="elwqp02mnldgf" class="animable"></path><path d="M213.91,114.56c.11.33.38.83.66.83.44,0,.79-.62.79-1.4s-.35-1.4-.79-1.4c-.25,0-.51.45-.63.72l-2.9-.08a13.32,13.32,0,0,0-1.38-5.27l3.82-2.36c.29.25.82.58,1.09.43s.4-1,0-1.77-1.11-1.14-1.52-.9c-.24.14-.24.71-.2,1l-4,2.15A13.36,13.36,0,0,0,205,102.7l1.36-2.52c.33.07.91.09,1-.16s-.15-1-.82-1.37-1.39-.4-1.6,0,.13.67.3.91L203.74,102a13.26,13.26,0,0,0-5.25-1.42l-.13-4.5c.35-.12.91-.42.91-.73,0-.47-.69-.86-1.54-.86s-1.54.39-1.54.86c0,.28.49.57.79.69l-.13,4.54a13.26,13.26,0,0,0-5.26,1.42l-1.5-2.43c.22-.26.52-.75.38-1s-.93-.37-1.6,0-1,1-.82,1.38c.13.22.64.22.93.18l1.38,2.55a13.36,13.36,0,0,0-3.87,3.84l-4-2.13c.07-.37.09-1-.18-1.16s-1.09.17-1.51.91-.44,1.52,0,1.76c.25.14.74-.14,1-.34l3.85,2.38a13.49,13.49,0,0,0-1.38,5.27l-2.87.08c-.11-.32-.38-.83-.66-.83s-.78.63-.78,1.4.35,1.4.78,1.4c.25,0,.51-.44.63-.72l2.9.09a13.48,13.48,0,0,0,1.38,5.26l-3.82,2.36c-.28-.24-.82-.58-1.09-.42s-.4,1,0,1.76,1.11,1.14,1.52.91c.24-.15.24-.71.2-1l4-2.15a13.32,13.32,0,0,0,3.87,3.83L189,127.69c-.33-.06-.91-.08-1.05.16s.15,1,.82,1.38,1.39.4,1.61,0c.12-.22-.13-.67-.31-.9l1.52-2.47a13.49,13.49,0,0,0,5.26,1.43l.13,4.49c-.36.13-.92.42-.92.73,0,.48.69.87,1.54.87s1.54-.39,1.54-.87c0-.28-.49-.56-.78-.69l.13-4.53a13.44,13.44,0,0,0,5.25-1.43l1.51,2.44c-.23.26-.53.74-.39,1s.93.36,1.6,0,1-1,.82-1.38c-.13-.22-.64-.22-.93-.19L205,125.17a13.32,13.32,0,0,0,3.87-3.83l3.95,2.13c-.07.37-.09,1,.18,1.15s1.09-.16,1.52-.9.43-1.53,0-1.76c-.24-.14-.74.14-1,.33l-3.86-2.38a13.31,13.31,0,0,0,1.38-5.26Z" style="fill: none; stroke: rgb(120, 120, 120); stroke-linecap: round; stroke-linejoin: round; transform-origin: 197.66px 113.935px;" id="elqudgwyr752" class="animable"></path><path d="M198.71,103.7a1.38,1.38,0,1,1-1.38-1.31A1.34,1.34,0,0,1,198.71,103.7Z" style="fill: none; stroke: rgb(120, 120, 120); stroke-linecap: round; stroke-linejoin: round; transform-origin: 197.332px 103.77px;" id="el39vlyg3m0r2" class="animable"></path><path d="M190.37,114.33A1.38,1.38,0,1,1,189,113,1.35,1.35,0,0,1,190.37,114.33Z" style="fill: none; stroke: rgb(120, 120, 120); stroke-linecap: round; stroke-linejoin: round; transform-origin: 188.991px 114.38px;" id="els29qmku91fg" class="animable"></path><ellipse cx="195.17" cy="110.91" rx="1.38" ry="1.31" style="fill: none; stroke: rgb(120, 120, 120); stroke-linecap: round; stroke-linejoin: round; transform-origin: 195.17px 110.91px;" id="ela1xsz3pi3df" class="animable"></ellipse><path d="M193.33,122.35A1.38,1.38,0,1,1,192,121,1.35,1.35,0,0,1,193.33,122.35Z" style="fill: none; stroke: rgb(120, 120, 120); stroke-linecap: round; stroke-linejoin: round; transform-origin: 191.95px 122.379px;" id="elkdsim81qgs" class="animable"></path><path d="M208.38,116.83a1.38,1.38,0,1,1-1.38-1.31A1.34,1.34,0,0,1,208.38,116.83Z" style="fill: none; stroke: rgb(120, 120, 120); stroke-linecap: round; stroke-linejoin: round; transform-origin: 207.002px 116.9px;" id="el0e5sgru5eiqn" class="animable"></path><path d="M198.5,118.63a1.38,1.38,0,1,1-1.38-1.32A1.35,1.35,0,0,1,198.5,118.63Z" style="fill: none; stroke: rgb(120, 120, 120); stroke-linecap: round; stroke-linejoin: round; transform-origin: 197.121px 118.69px;" id="elcs3zbagizmk" class="animable"></path><path d="M203,113.37a1.38,1.38,0,1,1-1.38-1.32A1.35,1.35,0,0,1,203,113.37Z" style="fill: none; stroke: rgb(120, 120, 120); stroke-linecap: round; stroke-linejoin: round; transform-origin: 201.621px 113.43px;" id="el0h9mwtwuxw5i" class="animable"></path><path d="M206.31,107.24a1.38,1.38,0,1,1-1.38-1.31A1.35,1.35,0,0,1,206.31,107.24Z" style="fill: none; stroke: rgb(120, 120, 120); stroke-linecap: round; stroke-linejoin: round; transform-origin: 204.932px 107.31px;" id="el5gz2f73k2dv" class="animable"></path><path d="M203.12,123a1.38,1.38,0,1,1-1.38-1.32A1.34,1.34,0,0,1,203.12,123Z" style="fill: none; stroke: rgb(120, 120, 120); stroke-linecap: round; stroke-linejoin: round; transform-origin: 201.741px 123.06px;" id="elj4577gigqf" class="animable"></path><path d="M191.82,106.05a1.39,1.39,0,1,1-1.38-1.31A1.34,1.34,0,0,1,191.82,106.05Z" style="fill: none; stroke: rgb(120, 120, 120); stroke-linecap: round; stroke-linejoin: round; transform-origin: 190.432px 106.13px;" id="el0s3klo6eajq" class="animable"></path><path d="M418.19,116.91c0-13.87-12.36-23.71-25.45-34.13-.13-.1-.26-.2-.38-.31a148.63,148.63,0,0,0,11.54-10.2C421.39,54.78,418,39.64,417.83,39A2.35,2.35,0,0,0,415,37.26a2.38,2.38,0,0,0-1.77,2.84,19.26,19.26,0,0,1-.07,6.78H364a19.49,19.49,0,0,1-.08-6.78,2.36,2.36,0,0,0-4.59-1.1c-.16.64-3.56,15.78,13.92,33.27a150.64,150.64,0,0,0,11.55,10.2l-.38.31C371.34,93.2,359,103,359,116.91c0,15.11,17.52,30.87,25.64,37.36-5.88,4.19-28.46,22.07-24.33,47.26a2.37,2.37,0,0,0,2.33,2,1.69,1.69,0,0,0,.38,0,2.36,2.36,0,0,0,1.95-2.71,31.72,31.72,0,0,1-.38-6.61h48a32.42,32.42,0,0,1-.38,6.61,2.35,2.35,0,0,0,1.95,2.71,1.64,1.64,0,0,0,.38,0,2.37,2.37,0,0,0,2.33-2c4.14-25.27-18.6-43.18-24.33-47.26C400.62,147.83,418.19,132.05,418.19,116.91Zm-54.49,0a17.53,17.53,0,0,1,.11-1.78h49.55a17.53,17.53,0,0,1,.1,1.78c0,.37,0,.75,0,1.13H363.76C363.73,117.66,363.7,117.28,363.7,116.91Zm49.38,3.5a22.82,22.82,0,0,1-.8,2.9H364.89a21.28,21.28,0,0,1-.8-2.9Zm-.1-7.64H364.19a20.54,20.54,0,0,1,.94-2.91H412A20.54,20.54,0,0,1,413,112.77Zm-47.13,12.91h45.46c-.44,1-.94,1.94-1.49,2.91H367.34C366.79,127.62,366.29,126.65,365.85,125.68Zm3.58-65.51h38.31c-.66,1-1.38,2-2.2,3.11H371.62C370.81,62.22,370.09,61.19,369.43,60.17Zm39.74-2.36H368c-.6-1.07-1.11-2.1-1.56-3.1h44.31C410.29,55.71,409.77,56.74,409.17,57.81Zm3.49-8.57a29.9,29.9,0,0,1-1,3.1H365.46c-.4-1.09-.71-2.13-1-3.1ZM376.61,68.92c-1.11-1.11-2.12-2.2-3.05-3.28h30.05c-.93,1.08-1.94,2.17-3.05,3.28a150.81,150.81,0,0,1-12,10.53A150.66,150.66,0,0,1,376.61,68.92Zm10.76,17.56,1.21-1,1.22,1c9,7.19,17.17,13.7,21.12,21H366.24C370.2,100.18,378.33,93.67,387.37,86.48Zm-16.94,91.28h36.9a1.08,1.08,0,0,0,.31-.07c.58,1,1.11,2.08,1.61,3.17H367.92c.54-1.17,1.12-2.3,1.74-3.4A1.17,1.17,0,0,0,370.43,177.76Zm-3.51,5.46h43.33c.39,1,.73,2.05,1,3.11h-45.4C366.19,185.27,366.53,184.23,366.92,183.22Zm-2.16,8.57c.12-1,.31-2.08.53-3.1h46.59c.22,1,.4,2.05.53,3.1Zm41.5-16.4H370.91a67.14,67.14,0,0,1,17.67-18.1l.05,0A67.14,67.14,0,0,1,406.26,175.39Zm-17.67-24c-4.59-3.59-14-11.52-19.8-20.42h39.58C402.51,139.86,393.12,147.81,388.59,151.37Z" style="fill: none; stroke: rgb(120, 120, 120); stroke-miterlimit: 10; transform-origin: 388.582px 120.369px;" id="elv6w08eq0bq" class="animable"></path></g><g id="freepik--Plants--inject-82" class="animable" style="transform-origin: 74.5082px 354.576px;"><path d="M31.47,309.51c2.75,1.2,9.46,1.05,9.47,1.05s-1.44-4.4-1.57-4.66c-1.48-3.09-6.13-8.18-9.93-7.66a4.52,4.52,0,0,0-3.63,5.67C26.44,306.54,29.13,308.49,31.47,309.51Z" style="fill: rgb(38, 50, 56); transform-origin: 33.2927px 304.385px;" id="elj4hzh2kfw5" class="animable"></path><path d="M33.79,329c2.85.42,8.84-1.32,9.32-1.46a80.56,80.56,0,0,0,3.63,10.06c.83,1.9,1.72,3.8,2.63,5.69-.54-.8-1-1.51-1.12-1.6-2.23-2.59-8.07-6.26-11.59-4.77a4.53,4.53,0,0,0-2,6.43c1.3,2.37,4.42,3.54,6.94,3.91s7.7-1,9.06-1.39c.36.72.71,1.45,1.07,2.17,1.73,3.45,3.48,6.89,5.09,10.32.57,1.21,1.08,2.42,1.6,3.63-.48-.72-.9-1.31-1-1.39-2.24-2.59-8.07-6.27-11.6-4.77a4.52,4.52,0,0,0-2,6.43c1.3,2.37,4.41,3.54,6.94,3.91s7.2-.88,8.81-1.32c.5,1.25,1,2.5,1.42,3.74.27.85.59,1.65.81,2.52s.47,1.71.71,2.55c.39,1.64.81,3.32,1.15,4.92.24,1.12.46,2.18.68,3.26-.55-1.21-1.68-3.55-1.8-3.74-1.82-2.89-7-7.41-10.74-6.47a4.53,4.53,0,0,0-3,6.06c.92,2.53,3.82,4.16,6.26,4.91,2.69.82,8.64.07,9.38,0,.36,1.78.69,3.51,1,5.15,1,5.68,1.62,10.45,2,13.79.07.59.12,1.12.18,1.62H56.15l1.4,27.24H82.79l1.39-27.24H73.46c.08-.16.15-.32.23-.49,1.48-3.07,3.52-7.47,5.72-12.87.7-1.7,1.42-3.53,2.13-5.42.72.15,6.61,1.35,9.36.73,2.48-.57,5.5-2,6.61-4.44a4.52,4.52,0,0,0-2.5-6.25c-3.62-1.22-9.16,2.9-11.19,5.65-.12.16-1.22,2.06-1.89,3.28.29-.78.57-1.52.86-2.32.58-1.58,1.11-3.17,1.69-4.88l.76-2.54c.27-.84.45-1.76.68-2.65.49-2.07.89-4.19,1.24-6.34,1.39.51,6.32,2.22,8.88,2s5.74-1.11,7.21-3.37a4.53,4.53,0,0,0-1.52-6.57c-3.4-1.75-9.5,1.48-11.92,3.89-.15.15-1.69,2.08-2.52,3.15.2-1.29.41-2.58.58-3.89.47-3.8.83-7.65,1.2-11.5.12-1.17.24-2.34.37-3.52.49.19,6.31,2.35,9.17,2.15,2.55-.18,5.74-1.11,7.22-3.37A4.54,4.54,0,0,0,104.3,337c-3.4-1.75-9.49,1.48-11.91,3.89-.19.18-2.4,2.95-2.93,3.69.27-2.59.57-5.16,1-7.68a80.06,80.06,0,0,1,2.21-10.11c.23.09,6.29,2.38,9.23,2.17,2.54-.18,5.73-1.11,7.21-3.37a4.53,4.53,0,0,0-1.52-6.57c-3.4-1.75-9.5,1.48-11.92,3.89-.19.19-2.57,3.17-3,3.75.06-.2.1-.4.16-.59a58.22,58.22,0,0,1,4-9.56c.87-1.71,1.8-3.28,2.73-4.8,1.09.54,6.08,3,8.74,3.07s5.83-.47,7.54-2.56a4.53,4.53,0,0,0-.79-6.69c-3.19-2.12-9.6.42-12.27,2.55-.15.12-1.5,1.46-2.46,2.45.43-.68.86-1.38,1.29-2,1.6-2.41,3.22-4.51,4.66-6.37.83-1.05,1.6-2,2.33-2.84,1.35,0,6.76-.19,9.13-1.3s5-3.11,5.51-5.75a4.54,4.54,0,0,0-3.79-5.58c-3.8-.41-8.32,4.81-9.71,7.93-.12.27-1.52,4.7-1.45,4.7h.08c-.72.82-1.48,1.7-2.29,2.68-1.49,1.83-3.15,3.91-4.81,6.3a78.32,78.32,0,0,0-5,7.94A58.8,58.8,0,0,0,92,325.8s0,.08,0,.12c0-1.12,0-4.26-.06-4.5-.44-3.39-3.28-9.67-7-10.37a4.52,4.52,0,0,0-5.22,4.26c-.22,2.69,1.73,5.38,3.63,7.08,2.15,1.92,8.11,3.78,8.58,3.92a81.39,81.39,0,0,0-2.52,10.4c-.36,2-.67,4.12-.94,6.2,0-1,0-1.84-.05-2-.44-3.39-3.28-9.67-7-10.37a4.53,4.53,0,0,0-5.22,4.26c-.22,2.69,1.73,5.38,3.64,7.08s7,3.41,8.32,3.84c-.1.8-.21,1.6-.3,2.4-.46,3.84-.9,7.67-1.45,11.42-.19,1.32-.43,2.61-.67,3.91,0-.86,0-1.59,0-1.7-.44-3.39-3.28-9.67-7-10.37a4.54,4.54,0,0,0-5.23,4.26c-.22,2.69,1.74,5.38,3.64,7.08S83.44,366,85,366.52c-.28,1.32-.56,2.64-.89,3.91-.24.86-.42,1.7-.71,2.55s-.55,1.69-.81,2.52c-.58,1.58-1.16,3.21-1.76,4.74-.41,1.06-.82,2.07-1.23,3.08.21-1.31.56-3.88.56-4.1a17.57,17.57,0,0,0-2.35-8.56,4.81,4.81,0,0,0-.07-1,4.52,4.52,0,0,0-5.53-3.84c-3.7,1-6,7.48-6.22,10.89,0,.2.12,2.4.23,3.78-.19-.8-.36-1.59-.56-2.41-.39-1.64-.82-3.26-1.29-5-.25-.84-.5-1.68-.76-2.53s-.6-1.72-.89-2.59c-.74-2-1.57-4-2.46-6,1.43-.34,6.49-1.63,8.53-3.19S73,354.7,73,352a4.53,4.53,0,0,0-4.89-4.63c-3.81.41-7.11,6.47-7.8,9.82,0,.21-.27,2.66-.36,4-.55-1.19-1.08-2.38-1.67-3.56-1.7-3.43-3.53-6.84-5.34-10.25l-1.64-3.14c.52-.12,6.57-1.52,8.85-3.27,2-1.55,4.17-4.09,4.15-6.79a4.53,4.53,0,0,0-4.89-4.64c-3.81.41-7.11,6.47-7.8,9.82,0,.25-.37,3.79-.41,4.69-1.19-2.31-2.37-4.62-3.43-6.94A79,79,0,0,1,44,327.47c.23-.06,6.56-1.49,8.89-3.28,2-1.56,4.17-4.1,4.15-6.8a4.54,4.54,0,0,0-4.89-4.64c-3.8.42-7.1,6.48-7.79,9.82-.06.27-.4,4.07-.41,4.76-.06-.19-.14-.38-.2-.57a58.28,58.28,0,0,1-1.93-10.18c-.22-1.9-.31-3.73-.37-5.51,1.21-.15,6.71-.88,9-2.26s4.6-3.61,4.88-6.3A4.53,4.53,0,0,0,51,297.37c-3.83,0-7.77,5.65-8.83,8.9-.06.18-.44,2-.7,3.4,0-.81,0-1.64,0-2.41,0-2.89.19-5.54.37-7.88.12-1.34.25-2.54.38-3.66,1.11-.76,5.53-3.89,6.89-6.12s2.42-5.32,1.42-7.84a4.53,4.53,0,0,0-6.23-2.56c-3.4,1.76-4.29,8.6-3.73,12,0,.29,1.33,4.76,1.39,4.72l.07,0c-.15,1.07-.3,2.23-.43,3.5-.24,2.35-.48,5-.55,7.9a81.53,81.53,0,0,0,.23,9.38A58.5,58.5,0,0,0,42.94,327a.56.56,0,0,1,0,.12c-.6-.95-2.37-3.54-2.53-3.72-2.23-2.58-8.07-6.26-11.59-4.77a4.54,4.54,0,0,0-2,6.44C28.15,327.42,31.27,328.59,33.79,329ZM71.73,379.1c2,2.12,7,4.6,7.62,4.92-.68,1.68-1.36,3.31-2,4.83-2.3,5.29-4.41,9.61-5.93,12.61-.31.6-.58,1.14-.84,1.63H70.3c-.08-.58-.16-1.22-.26-1.94-.46-3.37-1.19-8.17-2.33-13.89-.35-1.8-.77-3.73-1.21-5.7A49.88,49.88,0,0,0,71.73,379.1Z" style="fill: rgb(38, 50, 56); transform-origin: 74.7772px 354.576px;" id="el5ii2949t9ii" class="animable"></path><path d="M99.4,311c.06,0,1.22-4.47,1.26-4.76.47-3.38-.61-10.2-4-11.86a4.52,4.52,0,0,0-6.16,2.73c-.93,2.54.24,5.65,1.63,7.79C93.71,307.41,99.39,311,99.4,311Z" style="fill: rgb(38, 50, 56); transform-origin: 95.4656px 302.49px;" id="elrtuewjp9pyb" class="animable"></path></g><g id="freepik--Character--inject-82" class="animable" style="transform-origin: 248px 278.561px;"><path d="M127.19,298.5h0a4.84,4.84,0,0,1-5.58-4l-7.43-44.31,9.54-1.61,7.43,44.32A4.82,4.82,0,0,1,127.19,298.5Z" style="fill: rgb(255, 255, 255); stroke: rgb(38, 50, 56); stroke-linecap: round; stroke-linejoin: round; transform-origin: 122.702px 273.573px;" id="elwe6h1i1ok3" class="animable"></path><path d="M127.07,268.61l-9.9-.57,4.44,26.49a4.84,4.84,0,1,0,9.54-1.6Z" style="fill: rgb(119, 255, 192); stroke: rgb(38, 50, 56); stroke-linecap: round; stroke-linejoin: round; transform-origin: 124.21px 283.394px;" id="eljwzerrnwntj" class="animable"></path><g id="elfg03xhkx5ok"><rect x="112.92" y="247.95" width="13.09" height="9.11" style="fill: rgb(255, 255, 255); stroke: rgb(38, 50, 56); stroke-linecap: round; stroke-linejoin: round; transform-origin: 119.465px 252.505px; transform: rotate(-9.53deg);" class="animable"></rect></g><path d="M143.77,347.37s-31.43-33.35-37-38.51-7.35-9.15-7.15-11.48,7.19-9.42,10.79-9.12S134.09,301.32,139.3,308a51.39,51.39,0,0,1,8.81,17.16c1.16,3.93,1.11,4.57,1.11,4.57l8.05,8.35Z" style="fill: rgb(153, 153, 153); stroke: rgb(38, 50, 56); stroke-linecap: round; stroke-linejoin: round; transform-origin: 128.438px 317.81px;" id="elz5fzyexhhs" class="animable"></path><path d="M101.08,301.82s-2.94-4.92-1.39-7.47,17.64-23,20.32-23.06-.58,7-4.4,12.68-8,12-8.11,13-.22,2.66-.22,2.66" style="fill: rgb(153, 153, 153); stroke: rgb(38, 50, 56); stroke-linecap: round; stroke-linejoin: round; transform-origin: 110.115px 286.555px;" id="elxld9v4f0qzj" class="animable"></path><path d="M107.22,303.77s-.23-7.48,1.77-10.94,14.51-20.55,15.89-21.71,5.14-.22,2.51,5.75-9.79,20.09-9.93,21.79-1.66,12.23-1.66,12.23" style="fill: rgb(153, 153, 153); stroke: rgb(38, 50, 56); stroke-linecap: round; stroke-linejoin: round; transform-origin: 117.757px 290.789px;" id="ela9m2jpha8kl" class="animable"></path><path d="M116,308.56s1.16-11.42,1.82-11.58,12-23.32,12-23.32,3.9-3.3,2.72,5.77S126,300.65,126,300.65l-.67,15.73" style="fill: rgb(153, 153, 153); stroke: rgb(38, 50, 56); stroke-linecap: round; stroke-linejoin: round; transform-origin: 124.381px 294.727px;" id="elfc8js2kzezj" class="animable"></path><path d="M125.6,311.07s3.34-14.44,4.29-15.64,3.66-13.14,5.37-13.21,2.52,3,1.06,7.77-3.2,10.19-3.2,10.19l1,10.54" style="fill: rgb(153, 153, 153); stroke: rgb(38, 50, 56); stroke-linecap: round; stroke-linejoin: round; transform-origin: 131.339px 296.644px;" id="elphg66as0yk" class="animable"></path><path d="M218.74,427.37c7.4-1.4,33.94-32,33.94-32l-2.31,35.48H419.84c-2.07-17.19-13.38-164.32-14.52-167.36-1.21-3.23-71.58-33.05-71.58-33.05l-31.86,1.21S262,257.86,251.47,263.91s-14.11,8.47-14.11,10.89-23.24,96.35-23.24,96.35l-57.69-40.83L135.8,349.64l75.27,77.5S211.34,428.78,218.74,427.37Z" style="fill: rgb(119, 255, 192); stroke: rgb(38, 50, 56); stroke-linecap: round; stroke-linejoin: round; transform-origin: 277.82px 330.645px;" id="elnjgt9ktfzp" class="animable"></path><line x1="252.76" y1="380.69" x2="253.09" y2="311.89" style="fill: none; stroke: rgb(38, 50, 56); stroke-linecap: round; stroke-linejoin: round; transform-origin: 252.925px 346.29px;" id="el3v5nf06wms7" class="animable"></line><line x1="252.68" y1="395.37" x2="252.73" y2="386.78" style="fill: none; stroke: rgb(38, 50, 56); stroke-linecap: round; stroke-linejoin: round; transform-origin: 252.705px 391.075px;" id="elg9vj5j3xbkh" class="animable"></line><line x1="252.28" y1="328.83" x2="244.62" y2="303.83" style="fill: none; stroke: rgb(38, 50, 56); stroke-linecap: round; stroke-linejoin: round; transform-origin: 248.45px 316.33px;" id="el5oo6tpl6l65" class="animable"></line><path d="M214.12,371.15a43.09,43.09,0,0,1,5.21,18.16" style="fill: none; stroke: rgb(38, 50, 56); stroke-linecap: round; stroke-linejoin: round; transform-origin: 216.725px 380.23px;" id="elmhtop34erxf" class="animable"></path><path d="M219.33,393.63s-.18,2.14-.18,6.46" style="fill: none; stroke: rgb(38, 50, 56); stroke-linecap: round; stroke-linejoin: round; transform-origin: 219.24px 396.86px;" id="el8lusqw2wnws" class="animable"></path><path d="M293.73,246.29l-9.67,35,12.34,8L283.4,305l17,71,42-73.33L329.73,288l18.67-4.67L344.06,240c-4.06-11.79-9.69-14-15.66-11.67C321.84,230.85,298.06,230.63,293.73,246.29Z" style="fill: rgb(119, 255, 192); stroke: rgb(38, 50, 56); stroke-linecap: round; stroke-linejoin: round; transform-origin: 315.9px 301.752px;" id="elt109uf9a8yb" class="animable"></path><path d="M296.73,250.63S304.06,299,304.06,317s-.33,21.67-.33,21.67,19.67-51.67,25.33-77a104.59,104.59,0,0,0-1-47.67S313.4,245,296.73,250.63Z" style="fill: rgb(255, 255, 255); stroke: rgb(38, 50, 56); stroke-linecap: round; stroke-linejoin: round; transform-origin: 314.033px 276.335px;" id="el232kby2rlnw" class="animable"></path><path d="M328.06,214s-14.66,31-31.33,36.67c0,0,.38,2.49,1,6.53,4.24-.41,14.35-1.62,20.59-4.12,5.6-2.24,9.64-20,11.59-30.7A74.5,74.5,0,0,0,328.06,214Z" style="fill: rgb(38, 50, 56); stroke: rgb(38, 50, 56); stroke-linecap: round; stroke-linejoin: round; transform-origin: 313.32px 235.6px;" id="elthn2fz52tkd" class="animable"></path><path d="M325.72,274.39c-10.73,4.54-19.71,3.22-25.51,1.19,1.89,14.65,3.85,32.07,3.85,41.38,0,18-.33,21.67-.33,21.67S318,301.16,325.72,274.39Z" style="fill: rgb(38, 50, 56); stroke: rgb(38, 50, 56); stroke-linecap: round; stroke-linejoin: round; transform-origin: 312.965px 306.51px;" id="elljj39pe71g9" class="animable"></path><path d="M254.49,188.55s-8,4.43-13-10.24S252,136,268.05,130.15s35.71-6.09,50.66,6.36,13.84,42.91,13.84,42.91,14.4-.83,22.7,16.88-7.2,32.67-17.72,32.39-16-10-17.16-18.54-20.48-29.9-30.17-32.39-16.61,6.36-24.36,8S254.49,188.55,254.49,188.55Z" style="fill: rgb(38, 50, 56); transform-origin: 299.07px 177.483px;" id="elg0ut1uifn2f" class="animable"></path><g style="clip-path: url(&quot;#freepik--clip-path--inject-82&quot;); transform-origin: 289.4px 157.257px;" id="elto6g16xqz6d" class="animable"><path d="M275.16,153s10,6.51,28.21,9.49,28.48,7.33,34.72,13" style="fill: none; stroke: rgb(97, 97, 97); stroke-linecap: round; stroke-linejoin: round; transform-origin: 306.625px 164.245px;" id="elweysuc54s9k" class="animable"></path><path d="M279.23,142.46s15.73,8.14,33.63,7.33,29.3,13,29.3,13" style="fill: none; stroke: rgb(97, 97, 97); stroke-linecap: round; stroke-linejoin: round; transform-origin: 310.695px 152.625px;" id="elbv5vve7lqzm" class="animable"></path><path d="M286.29,131.88a79.8,79.8,0,0,0,26.57,4.89A33.62,33.62,0,0,1,335.92,146" style="fill: none; stroke: rgb(97, 97, 97); stroke-linecap: round; stroke-linejoin: round; transform-origin: 311.105px 138.94px;" id="elgd10r64ys67" class="animable"></path><path d="M264.59,155.21s-2.93,2.39-13,12.75-7,18.71-7,18.71" style="fill: none; stroke: rgb(97, 97, 97); stroke-linecap: round; stroke-linejoin: round; transform-origin: 254.37px 170.94px;" id="eljkgzvp9f42s" class="animable"></path><path d="M264.59,149s-9.77,6-19,12.48-8.95,14.92-8.95,14.92" style="fill: none; stroke: rgb(97, 97, 97); stroke-linecap: round; stroke-linejoin: round; transform-origin: 250.615px 162.7px;" id="el0xgp3yv6yam" class="animable"></path><path d="M268.38,137.31a50.46,50.46,0,0,0-16.27,9.76c-8.41,7.33-13,12.21-13,12.21" style="fill: none; stroke: rgb(97, 97, 97); stroke-linecap: round; stroke-linejoin: round; transform-origin: 253.745px 148.295px;" id="elt8nmjs18o8r" class="animable"></path><path d="M257.81,134.33s5.69-4.34,11.39-6a16.08,16.08,0,0,1,10.85,1.08s-11.94,16-11.12,30.11" style="fill: none; stroke: rgb(97, 97, 97); stroke-linecap: round; stroke-linejoin: round; transform-origin: 268.93px 143.682px;" id="el9u8aaqbtbok" class="animable"></path></g><path d="M254.49,188.55s-8,4.43-13-10.24S252,136,268.05,130.15s35.71-6.09,50.66,6.36,13.84,42.91,13.84,42.91,14.4-.83,22.7,16.88-7.2,32.67-17.72,32.39-16-10-17.16-18.54-20.48-29.9-30.17-32.39-16.61,6.36-24.36,8S254.49,188.55,254.49,188.55Z" style="fill: none; stroke: rgb(38, 50, 56); stroke-linecap: round; stroke-linejoin: round; transform-origin: 299.07px 177.483px;" id="elx65k07jni8c" class="animable"></path><path d="M252.55,186.06s7.47,23.53,11.07,34.6,13.57,26.3,22.7,30.73,25.19-1.38,27.41-3.32,13.56-22.42,15.5-26.85.55-15.78.55-15.78,5.26-7.47,5-14.39-4.16-10.25-6.37-8.86a13.9,13.9,0,0,0-3.6,3.32s-1.94-3.6-9.41-8-13.13.59-25.31-3a119.71,119.71,0,0,1-19.8-7.6S262.24,182.19,252.55,186.06Z" style="fill: rgb(255, 255, 255); stroke: rgb(38, 50, 56); stroke-linecap: round; stroke-linejoin: round; transform-origin: 293.67px 209.964px;" id="el327suqca8iy" class="animable"></path><path d="M332.3,188.67s-.28-3.65-2.81-1.4-.28,5.89-.28,5.89,3.93-.84,2,2.25" style="fill: none; stroke: rgb(38, 50, 56); stroke-linecap: round; stroke-linejoin: round; transform-origin: 330.294px 190.974px;" id="elzirmm28278j" class="animable"></path><path d="M264.12,204.06V209a11.61,11.61,0,0,0,10.52-1.24" style="fill: none; stroke: rgb(38, 50, 56); stroke-linecap: round; stroke-linejoin: round; transform-origin: 269.38px 206.895px;" id="eliazz5tyn89" class="animable"></path><path d="M292,198.91l.2,5.77a15.29,15.29,0,0,0,12-3.51" style="fill: none; stroke: rgb(38, 50, 56); stroke-linecap: round; stroke-linejoin: round; transform-origin: 298.1px 201.866px;" id="el59fws8objac" class="animable"></path><path d="M261.65,198.7s4.33-3.09,14.43-.41" style="fill: none; stroke: rgb(38, 50, 56); stroke-linecap: round; stroke-linejoin: round; stroke-width: 2px; transform-origin: 268.865px 197.948px;" id="elr0m2z6ogye" class="animable"></path><path d="M284.33,196.43s4.12-4.74,16.28-6.18" style="fill: none; stroke: rgb(38, 50, 56); stroke-linecap: round; stroke-linejoin: round; stroke-width: 2px; transform-origin: 292.47px 193.34px;" id="eloyiouu7vkrd" class="animable"></path><path d="M288.81,213.74c-7.19-1.66-6.64-1.93-11.62,2.22s-13.84,3.6-13.84,3.6l-.07,0c.12.36.23.72.34,1.06,3.6,11.08,13.57,26.3,22.7,30.73s25.19-1.38,27.41-3.32a37.46,37.46,0,0,0,3.92-5.76,13.86,13.86,0,0,0,.51-1.71c.83-3.88,2.49-12.46,5.81-18.27s5.81-16.89,5.81-16.89-8,21-11.35,20.21-3.6-7.2-3.6-10.8,7.48-11.9,10.25-20.21-.28-9.13-.28-9.13c-1.66,16.05-9.69,25.47-9.69,25.47C303.76,217.07,296,215.41,288.81,213.74Z" style="fill: rgb(153, 153, 153); stroke: rgb(38, 50, 56); stroke-linecap: round; stroke-linejoin: round; transform-origin: 296.53px 219.224px;" id="elegdcuy1iwfu" class="animable"></path><path d="M249.23,196.3c-2.16-.12,6.64,16.06,9.13,18.55s11.91,3.6,16.61,1.39,2.77-9.69,6.65-10,6.09,6.64,9.69,8,15.77-1.39,22.14-4.15,6.64-10,6.64-10L317.6,185S287.43,198.52,249.23,196.3Z" style="fill: none; stroke: rgb(38, 50, 56); stroke-linecap: round; stroke-linejoin: round; transform-origin: 284.491px 201.214px;" id="elnx917o7h73q" class="animable"></path><path d="M249.23,196.3s34.6,3.6,78.61-15.5" style="fill: none; stroke: rgb(38, 50, 56); stroke-linecap: round; stroke-linejoin: round; stroke-width: 3px; transform-origin: 288.535px 188.685px;" id="eltioss9t5rg" class="animable"></path><line x1="309.85" y1="188.83" x2="313.45" y2="204.89" style="fill: none; stroke: rgb(38, 50, 56); stroke-linecap: round; stroke-linejoin: round; transform-origin: 311.65px 196.86px;" id="ellvd334nd0g" class="animable"></line><path d="M270.88,371.88l-14.57,49.79.25,4.65,3.29-3.14L274.7,373a2,2,0,0,0-1.51-2.52h0A2,2,0,0,0,270.88,371.88Z" style="fill: rgb(255, 255, 255); stroke: rgb(38, 50, 56); stroke-linecap: round; stroke-linejoin: round; transform-origin: 265.545px 398.381px;" id="elgejr2jrcc4" class="animable"></path><path d="M322.76,403.31s-23.83-6.24-29.14-8.87-17.32-9.32-19.55-5.79S253.21,410,254.24,412.18,266.49,424.26,269,425s7.07,3.73,12.84,1.71,8.3-3,8.3-3,10.31,2.73,13.17,2.8,11.88-3.32,11.88-3.32l6.81-.57Z" style="fill: rgb(153, 153, 153); stroke: rgb(38, 50, 56); stroke-linecap: round; stroke-linejoin: round; transform-origin: 288.479px 407.522px;" id="el5t6b41p2aj" class="animable"></path><line x1="258.79" y1="416.57" x2="278.19" y2="396.61" style="fill: none; stroke: rgb(38, 50, 56); stroke-linecap: round; stroke-linejoin: round; transform-origin: 268.49px 406.59px;" id="elibsz1327jcj" class="animable"></line><line x1="263.33" y1="421.68" x2="280.89" y2="404.18" style="fill: none; stroke: rgb(38, 50, 56); stroke-linecap: round; stroke-linejoin: round; transform-origin: 272.11px 412.93px;" id="elsur6nodhuq" class="animable"></line><line x1="271.11" y1="425.79" x2="285.35" y2="412.87" style="fill: none; stroke: rgb(38, 50, 56); stroke-linecap: round; stroke-linejoin: round; transform-origin: 278.23px 419.33px;" id="eltcedw6tznrh" class="animable"></line><path d="M383.19,278.42s-17.42,21.4-17.58,29.06,14.8,78.57,14.8,78.57l-63.56,11.11,1.75,30.29s100.85-.61,104.89-.92,12.48,1.08,13.35-2.13S408.26,268.73,407.5,266.7a8.9,8.9,0,0,0-9.57-5.06" style="fill: rgb(119, 255, 192); stroke: rgb(38, 50, 56); stroke-linecap: round; stroke-linejoin: round; transform-origin: 376.854px 344.483px;" id="elzhdhjuekbis" class="animable"></path><line x1="380.41" y1="386.05" x2="404.29" y2="382.55" style="fill: none; stroke: rgb(38, 50, 56); stroke-linecap: round; stroke-linejoin: round; transform-origin: 392.35px 384.3px;" id="elg957spiw75r" class="animable"></line><line x1="382.03" y1="386.09" x2="399.55" y2="378.01" style="fill: none; stroke: rgb(38, 50, 56); stroke-linecap: round; stroke-linejoin: round; transform-origin: 390.79px 382.05px;" id="el5y6e75ozqyy" class="animable"></line><path d="M408.16,382.84s7.17-1.08,10.76-.72" style="fill: none; stroke: rgb(38, 50, 56); stroke-linecap: round; stroke-linejoin: round; transform-origin: 413.54px 382.443px;" id="elcje07irzffi" class="animable"></path><rect x="333.32" y="314.19" width="28.63" height="42.13" style="fill: rgb(255, 255, 255); stroke: rgb(38, 50, 56); stroke-linecap: round; stroke-linejoin: round; transform-origin: 347.635px 335.255px;" id="elaa0ewgyh0ah" class="animable"></rect><rect x="344.57" y="304.78" width="6.14" height="15.13" style="fill: rgb(38, 50, 56); stroke: rgb(38, 50, 56); stroke-linecap: round; stroke-linejoin: round; transform-origin: 347.64px 312.345px;" id="elorcp1gnj9cg" class="animable"></rect><line x1="30.33" y1="430.76" x2="465.67" y2="430.76" style="fill: rgb(255, 255, 255); stroke: rgb(38, 50, 56); stroke-linecap: round; stroke-linejoin: round; transform-origin: 248px 430.76px;" id="eluc2hqtnnfaq" class="animable"></line><path d="M109.32,378.49H119a0,0,0,0,1,0,0v44.94a4.84,4.84,0,0,1-4.84,4.84h0a4.84,4.84,0,0,1-4.84-4.84V378.49a0,0,0,0,1,0,0Z" style="fill: rgb(255, 255, 255); stroke: rgb(38, 50, 56); stroke-linecap: round; stroke-linejoin: round; transform-origin: 114.16px 403.38px;" id="elhtr9p0o6ohi" class="animable"></path><path d="M109.32,396.85v26.58a4.84,4.84,0,1,0,9.67,0V396.85Z" style="fill: rgb(119, 255, 192); stroke: rgb(38, 50, 56); stroke-linecap: round; stroke-linejoin: round; transform-origin: 114.155px 412.67px;" id="el70osojd9kr5" class="animable"></path><rect x="107.61" y="377.07" width="13.09" height="9.1" style="fill: rgb(255, 255, 255); stroke: rgb(38, 50, 56); stroke-linecap: round; stroke-linejoin: round; transform-origin: 114.155px 381.62px;" id="elmnctm5gyik" class="animable"></rect><path d="M133,428.27h0a4.84,4.84,0,0,1-4.84-4.84V378.49h9.67v44.94A4.84,4.84,0,0,1,133,428.27Z" style="fill: rgb(255, 255, 255); stroke: rgb(38, 50, 56); stroke-linecap: round; stroke-linejoin: round; transform-origin: 132.995px 403.38px;" id="elugpejisc7hs" class="animable"></path><path d="M128.13,396.85v26.58a4.84,4.84,0,1,0,9.67,0V396.85Z" style="fill: rgb(119, 255, 192); stroke: rgb(38, 50, 56); stroke-linecap: round; stroke-linejoin: round; transform-origin: 132.965px 412.67px;" id="el52f7bp93nc4" class="animable"></path><rect x="126.42" y="377.07" width="13.09" height="9.1" style="fill: rgb(255, 255, 255); stroke: rgb(38, 50, 56); stroke-linecap: round; stroke-linejoin: round; transform-origin: 132.965px 381.62px;" id="elr58f3jupgs" class="animable"></rect><path d="M151.78,428.27h0a4.84,4.84,0,0,1-4.83-4.84V378.49h9.67v44.94A4.84,4.84,0,0,1,151.78,428.27Z" style="fill: rgb(255, 255, 255); stroke: rgb(38, 50, 56); stroke-linecap: round; stroke-linejoin: round; transform-origin: 151.785px 403.38px;" id="elywmzvy4zbwh" class="animable"></path><path d="M147,396.85v26.58a4.84,4.84,0,0,0,4.83,4.84h0a4.84,4.84,0,0,0,4.84-4.84V396.85Z" style="fill: rgb(119, 255, 192); stroke: rgb(38, 50, 56); stroke-linecap: round; stroke-linejoin: round; transform-origin: 151.835px 412.56px;" id="elzvbxj3o3xp" class="animable"></path><rect x="145.24" y="377.07" width="13.09" height="9.1" style="fill: rgb(255, 255, 255); stroke: rgb(38, 50, 56); stroke-linecap: round; stroke-linejoin: round; transform-origin: 151.785px 381.62px;" id="elpzhls3wjb9i" class="animable"></rect><path d="M170.6,428.27h0a4.84,4.84,0,0,1-4.84-4.84V378.49h9.67v44.94A4.84,4.84,0,0,1,170.6,428.27Z" style="fill: rgb(255, 255, 255); stroke: rgb(38, 50, 56); stroke-linecap: round; stroke-linejoin: round; transform-origin: 170.595px 403.38px;" id="elqphn16dyj5q" class="animable"></path><path d="M165.76,396.85v26.58a4.84,4.84,0,1,0,9.67,0V396.85Z" style="fill: rgb(119, 255, 192); stroke: rgb(38, 50, 56); stroke-linecap: round; stroke-linejoin: round; transform-origin: 170.595px 412.67px;" id="elhecd1jj4nrt" class="animable"></path><rect x="164.05" y="377.07" width="13.09" height="9.1" style="fill: rgb(255, 255, 255); stroke: rgb(38, 50, 56); stroke-linecap: round; stroke-linejoin: round; transform-origin: 170.595px 381.62px;" id="elilh4fyps57m" class="animable"></rect><polygon points="185.32 391.08 101.06 391.08 101.06 393.94 185.32 393.94 185.32 423.8 96.97 423.8 96.97 430.76 191.05 430.76 191.05 429.12 191.05 423.8 191.05 393.94 191.05 391.08 185.32 391.08" style="fill: rgb(255, 255, 255); stroke: rgb(38, 50, 56); stroke-linecap: round; stroke-linejoin: round; transform-origin: 144.01px 410.92px;" id="elx05vse9dmfn" class="animable"></polygon><path d="M208.19,430.76h104.3v-3.69s-16.77.41-28.64-2a131,131,0,0,0-21.38-2.3c-4.79-.18-9.9.6-13.52,3.74-3.59-2.48-7.87-3.08-12.13-3.08-9.41,0-23.73,2.05-33.95,3.68a126.24,126.24,0,0,1-18,1.64v2.05Z" style="fill: rgb(38, 50, 56); stroke: rgb(38, 50, 56); stroke-linecap: round; stroke-linejoin: round; transform-origin: 248.68px 426.773px;" id="elkgfi27pdtsj" class="animable"></path></g><g id="freepik--Device--inject-82" class="animable" style="transform-origin: 403.76px 327.504px;"><path d="M391.36,227.34l-1.7-1.65a4,4,0,0,0-.3-.29h0a4.54,4.54,0,0,0-6.83,5.85h0l0,0a5,5,0,0,0,1.06,1.13l1.51,1.6.68-.72a4.91,4.91,0,0,0,.55,0,4.55,4.55,0,0,0,4.55-4.55,4.12,4.12,0,0,0-.09-.86Z" style="fill: rgb(94, 94, 94); stroke: rgb(38, 50, 56); stroke-linecap: round; stroke-linejoin: round; transform-origin: 386.587px 229.121px;" id="el6cdowbmarp5" class="animable"></path><circle cx="388.32" cy="230.77" r="4.55" style="fill: rgb(38, 50, 56); stroke: rgb(38, 50, 56); stroke-linecap: round; stroke-linejoin: round; transform-origin: 388.32px 230.77px;" id="elqi9b9m5kf" class="animable"></circle><path d="M396.8,231.3l-2.28-2.22-.41-.39h0a6.09,6.09,0,0,0-9.16,7.86h0l.05.06a6.18,6.18,0,0,0,1.42,1.51l2,2.15.91-1a6,6,0,0,0,.74.05,6.09,6.09,0,0,0,6-7.24Z" style="fill: rgb(94, 94, 94); stroke: rgb(38, 50, 56); stroke-linecap: round; stroke-linejoin: round; transform-origin: 390.386px 233.71px;" id="eltpolmz5gq4" class="animable"></path><circle cx="392.72" cy="235.9" r="6.1" style="fill: rgb(38, 50, 56); stroke: rgb(38, 50, 56); stroke-linecap: round; stroke-linejoin: round; transform-origin: 392.72px 235.9px;" id="el4aaitl9ez7j" class="animable"></circle><path d="M409.07,227.34l-1.7-1.65a2.06,2.06,0,0,0-.3-.29h0a4.53,4.53,0,0,0-7.55,3.4,4.57,4.57,0,0,0,.72,2.45h0l0,0a4.74,4.74,0,0,0,1.06,1.13l1.51,1.6.67-.72a5.09,5.09,0,0,0,.56,0,4.55,4.55,0,0,0,4.54-4.55,4.91,4.91,0,0,0-.08-.86Z" style="fill: rgb(94, 94, 94); stroke: rgb(38, 50, 56); stroke-linecap: round; stroke-linejoin: round; transform-origin: 404.295px 229.113px;" id="elykvb3t2p81" class="animable"></path><circle cx="406.03" cy="230.77" r="4.55" style="fill: rgb(38, 50, 56); stroke: rgb(38, 50, 56); stroke-linecap: round; stroke-linejoin: round; transform-origin: 406.03px 230.77px;" id="elu58gytwri0l" class="animable"></circle><path d="M414.51,231.3l-2.28-2.22-.4-.39h0a6.09,6.09,0,0,0-9.16,7.86h0l.05.06a6.22,6.22,0,0,0,1.43,1.51l2,2.15.9-1a6.16,6.16,0,0,0,.75.05,6.09,6.09,0,0,0,6-7.24Z" style="fill: rgb(94, 94, 94); stroke: rgb(38, 50, 56); stroke-linecap: round; stroke-linejoin: round; transform-origin: 408.101px 233.71px;" id="elas5xof7jy8m" class="animable"></path><path d="M416.54,235.9a6.1,6.1,0,1,1-6.1-6.1A6.1,6.1,0,0,1,416.54,235.9Z" style="fill: rgb(38, 50, 56); stroke: rgb(38, 50, 56); stroke-linecap: round; stroke-linejoin: round; transform-origin: 410.44px 235.9px;" id="elhg67zy0kfs" class="animable"></path><path d="M421.7,238a6.38,6.38,0,0,0-1.21-1.52l-.15-.18h0a6.29,6.29,0,0,0-4.1-1.51H391.49a6.32,6.32,0,0,0-6.32,6.32h0a6.32,6.32,0,0,0,1.75,4.36l-.08,0,10.54,11.64,34.27-8.2Z" style="fill: rgb(94, 94, 94); stroke: rgb(38, 50, 56); stroke-linecap: round; stroke-linejoin: round; transform-origin: 408.41px 245.95px;" id="el3qu9xm7y6y1" class="animable"></path><path d="M427.71,260.31H403a6.32,6.32,0,0,1-6.32-6.32h0a6.32,6.32,0,0,1,6.32-6.32h24.71A6.32,6.32,0,0,1,434,254h0A6.32,6.32,0,0,1,427.71,260.31Z" style="fill: rgb(38, 50, 56); stroke: rgb(38, 50, 56); stroke-linecap: round; stroke-linejoin: round; transform-origin: 415.34px 253.99px;" id="el3brb555w43t" class="animable"></path><path d="M436.78,255.49H401.92l3.1,8.12L401.92,281h34.86a12.78,12.78,0,0,0,0-25.54Z" style="fill: rgb(38, 50, 56); stroke: rgb(38, 50, 56); stroke-linecap: round; stroke-linejoin: round; transform-origin: 425.487px 268.23px;" id="elmjqio9d28t" class="animable"></path><path d="M401.92,255.49V281a12.78,12.78,0,0,0,0-25.54Z" style="fill: rgb(94, 94, 94); stroke: rgb(38, 50, 56); stroke-linecap: round; stroke-linejoin: round; transform-origin: 408.057px 268.23px;" id="el57hqs0xjxk" class="animable"></path><path d="M414.7,284s-12.78,1.74-22.47,9.1-11.62,14.53-12.39,18.59a52.46,52.46,0,0,0-.78,8.53v66.62h13.17V318.62s-1.16-8.91,3.88-16.27,18.59-10.46,18.59-10.46Z" style="fill: rgb(38, 50, 56); stroke: rgb(38, 50, 56); stroke-linecap: round; stroke-linejoin: round; transform-origin: 396.88px 335.42px;" id="el4upkid3e4hh" class="animable"></path><path d="M403.27,284s-12.78,1.74-22.46,9.1-11.62,14.53-12.4,18.59a53.13,53.13,0,0,0-.77,8.53v66.62h13.17V318.62s-1.16-8.91,3.87-16.27,18.59-10.46,18.59-10.46Z" style="fill: rgb(255, 255, 255); stroke: rgb(38, 50, 56); stroke-linecap: round; stroke-linejoin: round; transform-origin: 385.455px 335.42px;" id="elfblmcjumd1t" class="animable"></path><g id="eliqmwigg2fld"><circle cx="372.78" cy="359.76" r="9.57" style="fill: rgb(38, 50, 56); stroke: rgb(38, 50, 56); stroke-linecap: round; stroke-linejoin: round; transform-origin: 372.78px 359.76px; transform: rotate(-80.75deg);" class="animable"></circle></g><rect x="412.91" y="315.91" width="3.87" height="2.52" style="fill: rgb(38, 50, 56); stroke: rgb(38, 50, 56); stroke-linecap: round; stroke-linejoin: round; transform-origin: 414.845px 317.17px;" id="elrculf05la1d" class="animable"></rect><rect x="410.3" y="293.05" width="9.1" height="23.24" style="fill: rgb(38, 50, 56); stroke: rgb(38, 50, 56); stroke-linecap: round; stroke-linejoin: round; transform-origin: 414.85px 304.67px;" id="elnerb9ds6c1n" class="animable"></rect><g id="elmr90obscou"><rect x="438.14" y="313.33" width="3.87" height="2.52" style="fill: rgb(38, 50, 56); stroke: rgb(38, 50, 56); stroke-linecap: round; stroke-linejoin: round; transform-origin: 440.075px 314.59px; transform: rotate(-22.49deg);" class="animable"></rect></g><g id="elvgyd1gwd5ta"><rect x="430.75" y="291.43" width="9.1" height="23.24" style="fill: rgb(38, 50, 56); stroke: rgb(38, 50, 56); stroke-linecap: round; stroke-linejoin: round; transform-origin: 435.3px 303.05px; transform: rotate(-22.49deg);" class="animable"></rect></g><rect x="401.92" y="281.03" width="36.8" height="15.31" style="fill: rgb(94, 94, 94); stroke: rgb(38, 50, 56); stroke-linecap: round; stroke-linejoin: round; transform-origin: 420.32px 288.685px;" id="elw11br00vdsd" class="animable"></rect><rect x="409.93" y="281.03" width="28.79" height="15.31" style="fill: rgb(38, 50, 56); stroke: rgb(38, 50, 56); stroke-linecap: round; stroke-linejoin: round; transform-origin: 424.325px 288.685px;" id="elvtgp4pcw4i" class="animable"></rect><polygon points="431.16 353.96 429.71 353.96 429.71 341.47 426.23 341.47 426.23 353.96 425.06 353.96 425.06 361.81 426.23 361.81 426.23 382.43 429.71 382.43 429.71 361.81 431.16 361.81 431.16 353.96" style="fill: rgb(38, 50, 56); stroke: rgb(38, 50, 56); stroke-linecap: round; stroke-linejoin: round; transform-origin: 428.11px 361.95px;" id="elh6bvxdw7lf7" class="animable"></polygon><path d="M457.7,421.07H391.65V395.53a14,14,0,0,1,14-14h12.56a39.51,39.51,0,0,1,39.51,39.51Z" style="fill: rgb(38, 50, 56); stroke: rgb(38, 50, 56); stroke-linecap: round; stroke-linejoin: round; transform-origin: 424.685px 401.3px;" id="elsfm7wxeqc69" class="animable"></path><path d="M439.49,421.07h-66V395.53a14,14,0,0,1,14-14H400a39.51,39.51,0,0,1,39.51,39.51Z" style="fill: rgb(94, 94, 94); stroke: rgb(38, 50, 56); stroke-linecap: round; stroke-linejoin: round; transform-origin: 406.5px 401.3px;" id="eluofiv0gd0n" class="animable"></path><rect x="395.72" y="340.11" width="27.11" height="43.38" style="fill: rgb(38, 50, 56); stroke: rgb(38, 50, 56); stroke-linecap: round; stroke-linejoin: round; transform-origin: 409.275px 361.8px;" id="elmyhrg5w1avg" class="animable"></rect><rect x="395.72" y="354.28" width="27.11" height="15.06" style="fill: rgb(94, 94, 94); stroke: rgb(38, 50, 56); stroke-linecap: round; stroke-linejoin: round; transform-origin: 409.275px 361.81px;" id="eld7t7qhlgr66" class="animable"></rect><path d="M431.94,421.07H365.89V395.53a14,14,0,0,1,14-14h12.56a39.51,39.51,0,0,1,39.51,39.51Z" style="fill: rgb(38, 50, 56); stroke: rgb(38, 50, 56); stroke-linecap: round; stroke-linejoin: round; transform-origin: 398.925px 401.3px;" id="elqdgdargv3lk" class="animable"></path><path d="M354.18,430.76h0a1,1,0,0,1-1-.92l-.82-7.61H356l-.82,7.61A1,1,0,0,1,354.18,430.76Z" style="fill: rgb(38, 50, 56); stroke: rgb(38, 50, 56); stroke-linecap: round; stroke-linejoin: round; transform-origin: 354.18px 426.495px;" id="elvrmhvhvql5" class="animable"></path><path d="M397,430.76h0a1,1,0,0,1-1-.92l-.82-7.61h3.68l-.82,7.61A1,1,0,0,1,397,430.76Z" style="fill: rgb(38, 50, 56); stroke: rgb(38, 50, 56); stroke-linecap: round; stroke-linejoin: round; transform-origin: 397.02px 426.495px;" id="el2va412c0swx" class="animable"></path><path d="M412.91,430.76h0a1,1,0,0,1-1-.92l-.82-7.61h3.68l-.82,7.61A1,1,0,0,1,412.91,430.76Z" style="fill: rgb(38, 50, 56); stroke: rgb(38, 50, 56); stroke-linecap: round; stroke-linejoin: round; transform-origin: 412.93px 426.495px;" id="elbkl2v6c9y1a" class="animable"></path><path d="M456.29,430.76h0a1,1,0,0,1-1-.92l-.82-7.61h3.68l-.82,7.61A1,1,0,0,1,456.29,430.76Z" style="fill: rgb(38, 50, 56); stroke: rgb(38, 50, 56); stroke-linecap: round; stroke-linejoin: round; transform-origin: 456.31px 426.495px;" id="eljondevxbmzn" class="animable"></path><path d="M413.73,421.07h-66V395.53a14,14,0,0,1,14-14h12.56a39.51,39.51,0,0,1,39.51,39.51Z" style="fill: rgb(94, 94, 94); stroke: rgb(38, 50, 56); stroke-linecap: round; stroke-linejoin: round; transform-origin: 380.765px 401.3px;" id="elg6xo0xz24cj" class="animable"></path><rect x="344.01" y="419.33" width="118.34" height="4.07" rx="2.03" style="fill: rgb(255, 255, 255); stroke: rgb(38, 50, 56); stroke-linecap: round; stroke-linejoin: round; transform-origin: 403.18px 421.365px;" id="elysvszjwf2m" class="animable"></rect><rect x="378.48" y="335.85" width="85.02" height="7.17" style="fill: rgb(255, 255, 255); stroke: rgb(38, 50, 56); stroke-linecap: round; stroke-linejoin: round; transform-origin: 420.99px 339.435px;" id="eltekieowbk3" class="animable"></rect><rect x="407.7" y="335.85" width="55.81" height="7.17" style="fill: rgb(38, 50, 56); stroke: rgb(38, 50, 56); stroke-linecap: round; stroke-linejoin: round; transform-origin: 435.605px 339.435px;" id="el69bact096bt" class="animable"></rect></g><defs>     <filter id="active" height="200%">         <feMorphology in="SourceAlpha" result="DILATED" operator="dilate" radius="2"></feMorphology>                <feFlood flood-color="#32DFEC" flood-opacity="1" result="PINK"></feFlood>        <feComposite in="PINK" in2="DILATED" operator="in" result="OUTLINE"></feComposite>        <feMerge>            <feMergeNode in="OUTLINE"></feMergeNode>            <feMergeNode in="SourceGraphic"></feMergeNode>        </feMerge>    </filter>    <filter id="hover" height="200%">        <feMorphology in="SourceAlpha" result="DILATED" operator="dilate" radius="2"></feMorphology>                <feFlood flood-color="#ff0000" flood-opacity="0.5" result="PINK"></feFlood>        <feComposite in="PINK" in2="DILATED" operator="in" result="OUTLINE"></feComposite>        <feMerge>            <feMergeNode in="OUTLINE"></feMergeNode>            <feMergeNode in="SourceGraphic"></feMergeNode>        </feMerge>            <feColorMatrix type="matrix" values="0   0   0   0   0                0   1   0   0   0                0   0   0   0   0                0   0   0   1   0 "></feColorMatrix>    </filter></defs><defs><clipPath id="freepik--clip-path--inject-82"><path d="M254.49,188.55s-8,4.43-13-10.24S252,136,268.05,130.15s35.71-6.09,50.66,6.36,13.84,42.91,13.84,42.91,14.4-.83,22.7,16.88-7.2,32.67-17.72,32.39-16-10-17.16-18.54-20.48-29.9-30.17-32.39-16.61,6.36-24.36,8S254.49,188.55,254.49,188.55Z" style="fill:#263238;stroke:#263238;stroke-linecap:round;stroke-linejoin:round"></path></clipPath></defs></svg>